M48
INCH
T1C00.012
T2C00.035
%
T001
X00206Y00713
X00206Y01019
X00214Y01452
X00285Y00859
X00285Y00402
X00331Y01085
X00355Y00348
X00367Y01174
X00409Y00169
X00420Y01427
X00420Y01532
X00434Y00922
X00447Y00296
X00463Y01085
X00476Y01426
X00530Y01402
X00571Y00487
X00610Y00796
X00622Y01061
X00671Y00423
X00671Y00599
X00732Y00867
X00756Y00782
X00790Y01739
X00790Y00348
X00790Y00721
X00791Y00957
X00825Y01016
X00843Y01638
X00871Y00830
X00879Y01796
X00908Y00236
X00917Y00988
X00930Y01435
X00948Y01015
X00949Y00921
X01012Y00638
X01061Y00770
X01073Y00265
X01075Y01019
X01120Y00719
X01178Y00839
X01179Y00507
X01239Y01051
X01239Y01643
X01246Y00099
X01256Y00828
X01366Y01660
X01368Y00329
X01368Y00721
X01414Y00273
X01452Y01634
X01452Y02074
X01517Y01019
X01578Y00921
X01608Y00957
X01633Y00988
X01642Y01635
X01643Y01152
X01660Y02074
X01685Y00938
X01730Y01957
X01755Y01856
X01763Y00317
X01763Y01129
X01763Y01559
X02008Y01796
X02071Y01497
X02091Y00824
X02091Y00914
X02091Y00194
X02091Y00422
X02091Y00626
X02096Y01827
X02174Y01862
X02249Y01030
X02261Y01632
X02262Y02024
X02552Y01796
X02620Y00988
X02620Y01077
X02637Y01827
X02706Y00300
X02719Y01862
X02761Y00376
X02800Y01094
X02806Y00973
T002
X00239Y01767
X00239Y01940
M30
