%FSLAX23Y23*%
%MOIN*%
G04 EasyPC Gerber Version 15.0.4 Build 3016 *
%ADD14C,0.00100*%
%ADD16C,0.00500*%
%ADD15C,0.00787*%
%ADD13C,0.00800*%
%ADD148C,0.01000*%
%ADD83C,0.02200*%
%ADD133C,0.02500*%
%ADD82C,0.04724*%
X0Y0D02*
D02*
D13*
X206Y1019D02*
Y713D01*
X285Y859D02*
Y1119D01*
X367*
Y1174*
X285Y402D02*
Y169D01*
X409*
X285Y402D02*
Y631D01*
X285*
Y859*
X331Y1085D02*
X463D01*
X420Y1532D02*
Y1480D01*
X420*
Y1427*
X530Y1402D02*
X251D01*
Y99*
X1246*
X571Y487D02*
Y489D01*
X610*
Y796*
X671Y423D02*
Y599D01*
X671Y1182D02*
X671Y599D01*
X790Y1739D02*
X671D01*
Y1448*
X871Y830D02*
X912D01*
Y770*
X1061*
X917Y988D02*
X1633D01*
X948Y1015D02*
Y1017D01*
X825*
Y1016*
X949Y921D02*
X1578D01*
X1073Y265D02*
X1286D01*
Y867*
X1178*
X1120Y719D02*
X829D01*
Y782*
X756*
X1178Y867D02*
X732D01*
X1178D02*
Y839D01*
X1179Y507D02*
X1179D01*
Y296*
X447*
X1239Y1643D02*
Y1051D01*
X1256Y828D02*
Y638D01*
X1012*
X1368Y721D02*
Y329D01*
X1452Y1634D02*
Y2074D01*
X1517Y1019D02*
X1075D01*
Y1019*
X1608Y957D02*
X791D01*
X1730Y1957D02*
Y1898D01*
X2262*
Y2024*
X1755Y1856D02*
Y1757D01*
X2261*
Y1632*
X1763Y317D02*
X1515D01*
Y236*
X1763Y1129D02*
Y317D01*
Y1129D02*
Y1354D01*
X1763*
Y1559*
X2008Y1796D02*
X2552D01*
X2071Y1497D02*
Y1206D01*
X2249*
Y1030*
X2091Y630D02*
X2091D01*
Y626*
Y194D02*
Y422D01*
Y626D02*
X2620D01*
Y988*
X2091Y626D02*
Y422D01*
X2096Y1827D02*
X2637D01*
X2620Y1077D02*
Y1204D01*
X2620*
Y1796*
X2552*
X2706Y300D02*
Y1827D01*
X2637*
X2719Y1862D02*
X2174D01*
X2734Y909D02*
Y1108D01*
X2736*
X2761Y376D02*
Y1862D01*
X2719*
D02*
D14*
X2871Y1962D02*
X2875D01*
Y1966*
X2894*
Y1962*
X2899*
Y1977*
X2894*
Y1973*
X2875*
Y1981*
X2884*
Y1987*
X2871*
Y1962*
X2875Y2011D02*
X2871D01*
Y2002*
X2872*
X2871Y1999*
X2870Y1996*
X2871Y1993*
X2872Y1991*
X2874Y1989*
X2876Y1989*
X2879Y1989*
X2881Y1991*
X2883Y1994*
X2883Y1997*
X2882Y2002*
X2883*
X2885*
X2886Y2001*
X2887Y1998*
X2886Y1996*
X2885Y1994*
X2886Y1989*
X2888Y1990*
X2890Y1992*
X2890Y1995*
X2891Y1998*
Y2001*
X2890Y2003*
X2889Y2005*
X2888Y2006*
X2886Y2007*
X2885Y2008*
X2882*
X2875*
Y2011*
X2878Y2002D02*
X2879Y2000D01*
X2879Y1998*
X2879Y1996*
X2877Y1995*
X2875Y1996*
X2874Y1998*
X2875Y2000*
X2876Y2002*
X2878*
X2862Y2016D02*
X2866D01*
Y2020*
X2870Y2021*
X2886Y2014*
Y2011*
X2890*
Y2023*
X2886*
Y2021*
X2877Y2024*
X2886Y2028*
Y2025*
X2890*
Y2036*
X2886*
Y2033*
X2862Y2023*
Y2016*
X2877Y2053D02*
X2875Y2058D01*
X2873Y2056*
X2871Y2054*
X2871Y2051*
X2870Y2048*
X2871Y2044*
X2873Y2040*
X2876Y2038*
X2880Y2037*
X2884Y2038*
X2888Y2040*
X2890Y2044*
X2891Y2048*
X2890Y2051*
X2889Y2053*
X2887Y2056*
X2885Y2057*
X2879Y2058*
Y2044*
X2877Y2044*
X2875Y2045*
X2874Y2047*
Y2049*
X2875Y2051*
X2877Y2053*
X2883Y2051D02*
X2886Y2050D01*
X2886Y2049*
X2887Y2047*
X2886Y2045*
X2883Y2044*
Y2051*
X2875Y2073D02*
X2871D01*
Y2061*
X2875*
Y2064*
X2886*
Y2061*
X2890*
Y2069*
X2885*
X2887Y2070*
X2889Y2072*
X2890Y2074*
X2891Y2076*
Y2077*
X2885*
X2884Y2073*
X2883Y2072*
X2882Y2071*
X2880Y2070*
X2878Y2070*
X2875*
Y2073*
X2879Y2108D02*
X2871D01*
Y2090*
X2874*
X2876Y2091*
X2880Y2093*
X2882Y2094*
X2884Y2096*
X2887Y2099*
X2889Y2100*
X2890Y2101*
X2892*
X2894Y2101*
X2895Y2099*
X2894Y2098*
X2893Y2097*
X2891Y2096*
X2889Y2096*
Y2091*
X2893Y2091*
X2895Y2092*
X2897Y2093*
X2898Y2095*
X2899Y2099*
X2899Y2103*
X2897Y2106*
X2894Y2107*
X2891Y2108*
X2888Y2107*
X2886Y2105*
X2884Y2104*
X2883Y2102*
X2880Y2099*
X2878Y2097*
X2875Y2096*
Y2104*
X2879*
Y2108*
X2871Y1963D02*
X2875D01*
X2894D02*
X2899D01*
X2871Y1963D02*
X2875D01*
X2894D02*
X2899D01*
X2871Y1964D02*
X2875D01*
X2894D02*
X2899D01*
X2871Y1965D02*
X2875D01*
X2894D02*
X2899D01*
X2871Y1966D02*
X2899D01*
X2871Y1967D02*
X2899D01*
X2871Y1968D02*
X2899D01*
X2871Y1969D02*
X2899D01*
X2871Y1970D02*
X2899D01*
X2871Y1971D02*
X2899D01*
X2871Y1972D02*
X2899D01*
X2871Y1973D02*
X2899D01*
X2871Y1974D02*
X2875D01*
X2894D02*
X2899D01*
X2871Y1975D02*
X2875D01*
X2894D02*
X2899D01*
X2871Y1976D02*
X2875D01*
X2894D02*
X2899D01*
X2871Y1977D02*
X2875D01*
X2894D02*
X2899D01*
X2871Y1978D02*
X2875D01*
X2871Y1978D02*
X2875D01*
X2871Y1979D02*
X2875D01*
X2871Y1980D02*
X2875D01*
X2871Y1981D02*
X2884D01*
X2871Y1982D02*
X2884D01*
X2871Y1983D02*
X2884D01*
X2871Y1984D02*
X2884D01*
X2871Y1985D02*
X2884D01*
X2871Y1986D02*
X2884D01*
X2876Y1989D02*
X2877D01*
X2886D02*
X2887D01*
X2873Y1990D02*
X2880D01*
X2886D02*
X2888D01*
X2872Y1991D02*
X2881D01*
X2886D02*
X2889D01*
X2872Y1992D02*
X2882D01*
X2886D02*
X2890D01*
X2871Y1993D02*
X2882D01*
X2886D02*
X2890D01*
X2871Y1993D02*
X2883D01*
X2886D02*
X2890D01*
X2871Y1994D02*
X2883D01*
X2886D02*
X2890D01*
X2871Y1995D02*
X2876D01*
X2877D02*
X2883D01*
X2886D02*
X2891D01*
X2870Y1996D02*
X2875D01*
X2879D02*
X2883D01*
X2887D02*
X2891D01*
X2871Y1997D02*
X2875D01*
X2879D02*
X2883D01*
X2887D02*
X2891D01*
X2871Y1998D02*
X2875D01*
X2879D02*
X2883D01*
X2887D02*
X2891D01*
X2871Y1999D02*
X2875D01*
X2879D02*
X2883D01*
X2887D02*
X2891D01*
X2871Y2000D02*
X2875D01*
X2879D02*
X2883D01*
X2886D02*
X2891D01*
X2872Y2001D02*
X2876D01*
X2878D02*
X2883D01*
X2886D02*
X2891D01*
X2871Y2002D02*
X2891D01*
X2871Y2003D02*
X2891D01*
X2871Y2004D02*
X2890D01*
X2871Y2005D02*
X2889D01*
X2871Y2006D02*
X2889D01*
X2871Y2007D02*
X2888D01*
X2871Y2007D02*
X2885D01*
X2871Y2008D02*
X2875D01*
X2871Y2009D02*
X2875D01*
X2871Y2010D02*
X2875D01*
X2886Y2011D02*
X2890D01*
X2886Y2012D02*
X2890D01*
X2886Y2013D02*
X2890D01*
X2886Y2014D02*
X2890D01*
X2884Y2015D02*
X2890D01*
X2882Y2016D02*
X2890D01*
X2862Y2017D02*
X2866D01*
X2880D02*
X2890D01*
X2862Y2018D02*
X2866D01*
X2878D02*
X2890D01*
X2862Y2019D02*
X2866D01*
X2875D02*
X2890D01*
X2862Y2020D02*
X2866D01*
X2873D02*
X2890D01*
X2862Y2021D02*
X2868D01*
X2871D02*
X2890D01*
X2862Y2022D02*
X2884D01*
X2886D02*
X2890D01*
X2862Y2022D02*
X2881D01*
X2886D02*
X2890D01*
X2863Y2023D02*
X2879D01*
X2865Y2024D02*
X2878D01*
X2867Y2025D02*
X2880D01*
X2886D02*
X2890D01*
X2870Y2026D02*
X2882D01*
X2886D02*
X2890D01*
X2872Y2027D02*
X2885D01*
X2886D02*
X2890D01*
X2875Y2028D02*
X2890D01*
X2877Y2029D02*
X2890D01*
X2879Y2030D02*
X2890D01*
X2882Y2031D02*
X2890D01*
X2884Y2032D02*
X2890D01*
X2886Y2033D02*
X2890D01*
X2886Y2034D02*
X2890D01*
X2886Y2035D02*
X2890D01*
X2886Y2036D02*
X2890D01*
X2878Y2037D02*
X2882D01*
X2875Y2038D02*
X2885D01*
X2874Y2039D02*
X2887D01*
X2873Y2040D02*
X2888D01*
X2872Y2041D02*
X2889D01*
X2872Y2042D02*
X2889D01*
X2871Y2043D02*
X2890D01*
X2871Y2044D02*
X2878D01*
X2879D02*
X2883D01*
X2884D02*
X2890D01*
X2871Y2045D02*
X2876D01*
X2879D02*
X2883D01*
X2886D02*
X2890D01*
X2871Y2046D02*
X2875D01*
X2879D02*
X2883D01*
X2886D02*
X2891D01*
X2871Y2047D02*
X2874D01*
X2879D02*
X2883D01*
X2887D02*
X2891D01*
X2871Y2048D02*
X2874D01*
X2879D02*
X2883D01*
X2887D02*
X2891D01*
X2871Y2049D02*
X2875D01*
X2879D02*
X2883D01*
X2886D02*
X2891D01*
X2871Y2050D02*
X2875D01*
X2879D02*
X2883D01*
X2886D02*
X2891D01*
X2871Y2051D02*
X2875D01*
X2879D02*
X2883D01*
X2885D02*
X2890D01*
X2871Y2052D02*
X2876D01*
X2879D02*
X2890D01*
X2871Y2052D02*
X2876D01*
X2879D02*
X2890D01*
X2871Y2053D02*
X2877D01*
X2879D02*
X2889D01*
X2872Y2054D02*
X2877D01*
X2879D02*
X2889D01*
X2872Y2055D02*
X2876D01*
X2879D02*
X2888D01*
X2873Y2056D02*
X2876D01*
X2879D02*
X2886D01*
X2875Y2057D02*
X2876D01*
X2879D02*
X2882D01*
X2871Y2061D02*
X2875D01*
X2886D02*
X2890D01*
X2871Y2062D02*
X2875D01*
X2886D02*
X2890D01*
X2871Y2063D02*
X2875D01*
X2886D02*
X2890D01*
X2871Y2064D02*
X2890D01*
X2871Y2065D02*
X2890D01*
X2871Y2066D02*
X2890D01*
X2871Y2067D02*
X2890D01*
X2871Y2067D02*
X2890D01*
X2871Y2068D02*
X2890D01*
X2871Y2069D02*
X2886D01*
X2871Y2070D02*
X2875D01*
X2881D02*
X2888D01*
X2871Y2071D02*
X2875D01*
X2883D02*
X2889D01*
X2871Y2072D02*
X2875D01*
X2884D02*
X2890D01*
X2884Y2073D02*
X2890D01*
X2885Y2074D02*
X2891D01*
X2885Y2075D02*
X2891D01*
X2885Y2076D02*
X2891D01*
X2885Y2077D02*
X2891D01*
X2871Y2091D02*
X2877D01*
X2889D02*
X2891D01*
X2871Y2092D02*
X2879D01*
X2889D02*
X2896D01*
X2871Y2093D02*
X2881D01*
X2889D02*
X2897D01*
X2871Y2094D02*
X2882D01*
X2889D02*
X2898D01*
X2871Y2095D02*
X2883D01*
X2889D02*
X2898D01*
X2871Y2096D02*
X2884D01*
X2889D02*
X2899D01*
X2871Y2097D02*
X2875D01*
X2878D02*
X2885D01*
X2893D02*
X2899D01*
X2871Y2097D02*
X2875D01*
X2879D02*
X2886D01*
X2894D02*
X2899D01*
X2871Y2098D02*
X2875D01*
X2880D02*
X2887D01*
X2895D02*
X2899D01*
X2871Y2099D02*
X2875D01*
X2881D02*
X2888D01*
X2895D02*
X2899D01*
X2871Y2100D02*
X2875D01*
X2882D02*
X2889D01*
X2894D02*
X2899D01*
X2871Y2101D02*
X2875D01*
X2883D02*
X2899D01*
X2871Y2102D02*
X2875D01*
X2883D02*
X2899D01*
X2871Y2103D02*
X2875D01*
X2884D02*
X2899D01*
X2871Y2104D02*
X2879D01*
X2884D02*
X2898D01*
X2871Y2105D02*
X2879D01*
X2886D02*
X2897D01*
X2871Y2106D02*
X2879D01*
X2887D02*
X2897D01*
X2871Y2107D02*
X2879D01*
X2888D02*
X2895D01*
X2871Y2108D02*
X2879D01*
D02*
D15*
X671Y1448D02*
Y1182D01*
X790Y348D02*
Y721D01*
X908Y236D02*
X355D01*
Y348*
X1515Y236D02*
X908D01*
X1643Y1152D02*
Y1622D01*
X1642*
Y1635*
X2091Y824D02*
Y630D01*
Y824D02*
Y869D01*
X2091*
Y914*
D02*
D16*
X3Y80D02*
G75*
G03X95Y4I84J9D01*
G01*
X2947*
G75*
G03X3100Y113I22J131*
G01*
X3100Y2065*
G75*
G03X2948Y2164I-126J-26*
G01*
X110Y2163*
G75*
G03X3Y2067I-6J-102*
G01*
Y80*
D02*
D82*
X239Y1767D03*
Y1940D03*
D02*
D83*
X206Y713D03*
Y1019D03*
X214Y1452D03*
X285Y859D03*
X285Y402D03*
X331Y1085D03*
X355Y348D03*
X367Y1174D03*
X409Y169D03*
X420Y1427D03*
X420Y1532D03*
X434Y922D03*
X447Y296D03*
X463Y1085D03*
X476Y1426D03*
X530Y1402D03*
X571Y487D03*
X610Y796D03*
X622Y1061D03*
X671Y423D03*
Y599D03*
X732Y867D03*
X756Y782D03*
X790Y1739D03*
X790Y348D03*
Y721D03*
X791Y957D03*
X825Y1016D03*
X843Y1638D03*
X871Y830D03*
X879Y1796D03*
X908Y236D03*
X917Y988D03*
X930Y1435D03*
X948Y1015D03*
X949Y921D03*
X1012Y638D03*
X1061Y770D03*
X1073Y265D03*
X1075Y1019D03*
X1120Y719D03*
X1178Y839D03*
X1179Y507D03*
X1239Y1051D03*
Y1643D03*
X1246Y99D03*
X1256Y828D03*
X1366Y1660D03*
X1368Y329D03*
Y721D03*
X1414Y273D03*
X1452Y1634D03*
Y2074D03*
X1517Y1019D03*
X1578Y921D03*
X1608Y957D03*
X1633Y988D03*
X1642Y1635D03*
X1643Y1152D03*
X1660Y2074D03*
X1685Y938D03*
X1730Y1957D03*
X1755Y1856D03*
X1763Y317D03*
Y1129D03*
X1763Y1559D03*
X2008Y1796D03*
X2071Y1497D03*
X2091Y824D03*
X2091Y914D03*
X2091Y194D03*
Y422D03*
Y626D03*
X2096Y1827D03*
X2174Y1862D03*
X2249Y1030D03*
X2261Y1632D03*
X2262Y2024D03*
X2552Y1796D03*
X2620Y988D03*
X2620Y1077D03*
X2637Y1827D03*
X2706Y300D03*
X2719Y1862D03*
X2761Y376D03*
X2800Y1094D03*
X2806Y973D03*
D02*
D133*
X47Y2088D02*
Y678D01*
X227*
Y689*
G75*
G02X181Y732I-21J23*
G01*
Y1000*
G75*
G02X227Y1043I25J20*
G01*
Y1402*
G75*
G02X251Y1427I25*
G01*
X388*
Y1427*
G75*
G02X394Y1445I32*
G01*
Y1514*
G75*
G02X389Y1532I26J18*
G01*
G75*
G02X452I32*
G01*
G75*
G02X446Y1514I-32*
G01*
Y1444*
G75*
G02X447Y1443I-27J-17*
G01*
G75*
G02X509Y1427I29J-17*
G01*
X511*
G75*
G02X562Y1402I20J-25*
G01*
G75*
G02X511Y1378I-32*
G01*
X276*
Y1142*
G75*
G02X285Y1143I9J-23*
G01*
X343*
Y1154*
G75*
G02X336Y1174I25J20*
G01*
G75*
G02X399I32*
G01*
G75*
G02X392Y1154I-32*
G01*
Y1119*
G75*
G02X390Y1110I-25*
G01*
X443*
G75*
G02X495Y1085I20J-25*
G01*
G75*
G02X443Y1061I-32*
G01*
X350*
G75*
G02X309Y1062I-20J25*
G01*
Y879*
G75*
G02X311Y842I-24J-20*
G01*
Y678*
X645*
Y1037*
G75*
G02X589Y1061I-23J25*
G01*
G75*
G02X645Y1086I34*
G01*
Y1182*
G75*
G02X647Y1191I26*
G01*
Y1446*
G75*
G02X647Y1448I24J2*
G01*
Y1739*
G75*
G02X671Y1763I25*
G01*
X770*
G75*
G02X821Y1739I20J-25*
G01*
G75*
G02X770Y1714I-32*
G01*
X696*
Y1448*
G75*
G02X695Y1446I-25*
G01*
Y1191*
G75*
G02X697Y1182I-24J-9*
G01*
Y678*
X1232*
Y808*
G75*
G02X1228Y843I25J20*
G01*
X1209*
G75*
G02X1210Y839I-31J-4*
G01*
G75*
G02X1147I-32*
G01*
G75*
G02X1147Y843I32J0*
G01*
X933*
G75*
G02X937Y830I-21J-13*
G01*
Y795*
X1041*
G75*
G02X1092Y770I20J-25*
G01*
G75*
G02X1077Y743I-32*
G01*
X1100*
G75*
G02X1151Y719I20J-25*
G01*
G75*
G02X1100Y694I-32*
G01*
X829*
G75*
G02X815Y699I0J25*
G01*
G75*
G02X757Y721I-25J23*
G01*
G75*
G02X804Y752I34*
G01*
Y758*
X776*
G75*
G02X725Y782I-20J25*
G01*
G75*
G02X776Y807I32*
G01*
X829*
G75*
G02X853Y782J-25*
G01*
Y743*
X1045*
G75*
G02X1041Y746I16J27*
G01*
X912*
G75*
G02X888Y770J25*
G01*
Y803*
G75*
G02X842Y843I-17J27*
G01*
X752*
G75*
G02X701Y867I-20J25*
G01*
G75*
G02X752Y892I32*
G01*
X938*
G75*
G02X920Y932I11J29*
G01*
X810*
G75*
G02X759Y957I-20J25*
G01*
G75*
G02X810Y981I32*
G01*
X886*
G75*
G02X886Y988I31J7*
G01*
G75*
G02X886Y990I31J0*
G01*
X844Y990*
G75*
G02X794Y1016I-18J26*
G01*
G75*
G02X842Y1042I32*
G01*
X931Y1041*
G75*
G02X980Y1013I17J-26*
G01*
X1044*
G75*
G02X1043Y1019I31J6*
G01*
G75*
G02X1091Y1045I32*
G01*
X1208*
G75*
G02X1207Y1051I31J6*
G01*
G75*
G02X1214Y1071I32*
G01*
Y1623*
G75*
G02X1207Y1643I25J20*
G01*
G75*
G02X1270I32*
G01*
G75*
G02X1263Y1623I-32*
G01*
Y1071*
G75*
G02X1270Y1051I-25J-20*
G01*
G75*
G02X1270Y1045I-32J0*
G01*
X1499*
G75*
G02X1547Y1013I18J-26*
G01*
X1613*
G75*
G02X1665Y988I20J-25*
G01*
G75*
G02X1639Y957I-32*
G01*
G75*
G02X1610Y925I-31J-1*
G01*
G75*
G02X1605Y904I-31J-4*
G01*
X1738*
Y1109*
G75*
G02X1737Y1147I25J20*
G01*
Y1542*
G75*
G02X1732Y1559I26J17*
G01*
G75*
G02X1795I32*
G01*
G75*
G02X1789Y1541I-32*
G01*
Y1147*
G75*
G02X1787Y1109I-26J-18*
G01*
Y904*
X1854*
Y1035*
X2218*
G75*
G02X2225Y1049I31J-5*
G01*
Y1181*
X2071*
G75*
G02X2046Y1206J25*
G01*
Y1477*
G75*
G02X2039Y1497I25J20*
G01*
G75*
G02X2102I32*
G01*
G75*
G02X2095Y1477I-32*
G01*
Y1230*
X2249*
G75*
G02X2274Y1206J-25*
G01*
Y1049*
G75*
G02X2280Y1035I-25J-20*
G01*
X2681*
Y1803*
X2657*
G75*
G02X2617I-20J25*
G01*
X2585*
G75*
G02X2586Y1796I-33J-7*
G01*
G75*
G02X2519I-34*
G01*
G75*
G02X2519Y1803I34J0*
G01*
X2116*
G75*
G02X2064Y1827I-20J25*
G01*
G75*
G02X2116Y1852I32*
G01*
X2144*
G75*
G02X2145Y1874I30J11*
G01*
X1781*
G75*
G02X1779Y1836I-26J-18*
G01*
Y1781*
X1977*
G75*
G02X1974Y1796I30J14*
G01*
G75*
G02X2041I34*
G01*
G75*
G02X2038Y1781I-34J0*
G01*
X2261*
G75*
G02X2286Y1757J-25*
G01*
Y1651*
G75*
G02X2293Y1632I-25J-20*
G01*
G75*
G02X2230I-32*
G01*
G75*
G02X2237Y1651I32*
G01*
Y1732*
X1755*
G75*
G02X1730Y1757J25*
G01*
Y1836*
G75*
G02X1729Y1874I25J20*
G01*
G75*
G02X1705Y1898I1J24*
G01*
Y1937*
G75*
G02X1698Y1957I25J20*
G01*
G75*
G02X1761I32*
G01*
G75*
G02X1754Y1937I-32*
G01*
Y1923*
X2238*
Y2005*
G75*
G02X2231Y2024I25J20*
G01*
G75*
G02X2294I32*
G01*
G75*
G02X2287Y2005I-32*
G01*
Y1898*
G75*
G02X2284Y1887I-25J0*
G01*
X2699*
G75*
G02X2739I20J-25*
G01*
X2761*
G75*
G02X2785Y1862J-25*
G01*
Y1124*
G75*
G02X2833Y1094I14J-30*
G01*
G75*
G02X2785Y1064I-34*
G01*
Y1035*
X3038*
Y2077*
G75*
G03X2953Y2122I-73J-35*
G01*
G75*
G02X2946Y2121I-7J34*
G01*
X2938*
G75*
G02X2940Y2111I-18J-10*
G01*
Y1961*
G75*
G02X2920Y1940I-21*
G01*
X2860*
G75*
G02X2839Y1961J21*
G01*
Y2111*
G75*
G02X2842Y2121I21J0*
G01*
X110Y2121*
G75*
G02X108Y2121I0J35*
G01*
G75*
G03X47Y2088I-4J-67*
G01*
X180Y1452D02*
G75*
G02X247I34D01*
G01*
G75*
G02X180I-34*
G01*
X195Y1767D02*
G75*
G02X283I44D01*
G01*
G75*
G02X195I-44*
G01*
Y1940D02*
G75*
G02X283I44D01*
G01*
G75*
G02X195I-44*
G01*
X400Y922D02*
G75*
G02X467I34D01*
G01*
G75*
G02X400I-34*
G01*
X576Y796D02*
G75*
G02X643I34D01*
G01*
G75*
G02X576I-34*
G01*
X809Y1638D02*
G75*
G02X876I34D01*
G01*
G75*
G02X809I-34*
G01*
X845Y1796D02*
G75*
G02X912I34D01*
G01*
G75*
G02X845I-34*
G01*
X897Y1435D02*
G75*
G02X964I34D01*
G01*
G75*
G02X897I-34*
G01*
X1333Y1660D02*
G75*
G02X1400I34D01*
G01*
G75*
G02X1333I-34*
G01*
X1427Y1654D02*
Y2055D01*
G75*
G02X1420Y2074I25J20*
G01*
G75*
G02X1483I32*
G01*
G75*
G02X1476Y2055I-32*
G01*
Y1654*
G75*
G02X1483Y1634I-25J-20*
G01*
G75*
G02X1420I-32*
G01*
G75*
G02X1427Y1654I32*
G01*
X1608Y1635D02*
G75*
G02X1675I34D01*
G01*
G75*
G02X1608I-34*
G01*
X1609Y1152D02*
G75*
G02X1676I34D01*
G01*
G75*
G02X1609I-34*
G01*
X1626Y2074D02*
G75*
G02X1693I34D01*
G01*
G75*
G02X1626I-34*
G01*
X1651Y938D02*
G75*
G02X1718I34D01*
G01*
G75*
G02X1651I-34*
G01*
X2587Y1077D02*
G75*
G02X2654I34D01*
G01*
G75*
G02X2587I-34*
G01*
X47Y1452D02*
G36*
Y678D01*
X227*
Y689*
G75*
G02X181Y732I-21J23*
G01*
Y1000*
G75*
G02X227Y1043I25J20*
G01*
Y1402*
G75*
G02X251Y1427I25*
G01*
X388*
Y1427*
G75*
G02X394Y1445I32*
G01*
Y1452*
X247*
G75*
G02X180I-34*
G01*
X47*
G37*
X180D02*
G36*
G75*
G02X247I34D01*
G01*
X394*
Y1514*
G75*
G02X389Y1532I26J18*
G01*
G75*
G02X452I32*
G01*
G75*
G02X446Y1514I-32*
G01*
Y1444*
G75*
G02X447Y1443I-27J-17*
G01*
G75*
G02X509Y1427I29J-17*
G01*
X511*
G75*
G02X562Y1402I20J-25*
G01*
G75*
G02X511Y1378I-32*
G01*
X276*
Y1142*
G75*
G02X285Y1143I9J-23*
G01*
X343*
Y1154*
G75*
G02X336Y1174I25J20*
G01*
G75*
G02X399I32*
G01*
G75*
G02X392Y1154I-32*
G01*
Y1119*
G75*
G02X390Y1110I-25*
G01*
X443*
G75*
G02X495Y1085I20J-25*
G01*
G75*
G02X443Y1061I-32*
G01*
X350*
G75*
G02X309Y1062I-20J25*
G01*
Y922*
X400*
G75*
G02X467I34*
G01*
X645*
Y1037*
G75*
G02X589Y1061I-23J25*
G01*
G75*
G02X645Y1086I34*
G01*
Y1182*
G75*
G02X647Y1191I26*
G01*
Y1446*
G75*
G02X647Y1448I24J2*
G01*
Y1739*
G75*
G02X671Y1763I25*
G01*
X770*
G75*
G02X775Y1767I20J-25*
G01*
X283*
G75*
G02X195I-44*
G01*
X47*
Y1452*
X180*
G37*
X696D02*
G36*
Y1448D01*
G75*
G02X695Y1446I-25*
G01*
Y1191*
G75*
G02X697Y1182I-24J-9*
G01*
Y678*
X1232*
Y808*
G75*
G02X1228Y843I25J20*
G01*
X1209*
G75*
G02X1210Y839I-31J-4*
G01*
G75*
G02X1147I-32*
G01*
G75*
G02X1147Y843I32J0*
G01*
X933*
G75*
G02X937Y830I-21J-13*
G01*
Y795*
X1041*
G75*
G02X1092Y770I20J-25*
G01*
G75*
G02X1077Y743I-32*
G01*
X1100*
G75*
G02X1151Y719I20J-25*
G01*
G75*
G02X1100Y694I-32*
G01*
X829*
G75*
G02X815Y699I0J25*
G01*
G75*
G02X757Y721I-25J23*
G01*
G75*
G02X804Y752I34*
G01*
Y758*
X776*
G75*
G02X725Y782I-20J25*
G01*
G75*
G02X776Y807I32*
G01*
X829*
G75*
G02X853Y782J-25*
G01*
Y743*
X1045*
G75*
G02X1041Y746I16J27*
G01*
X912*
G75*
G02X888Y770J25*
G01*
Y803*
G75*
G02X842Y843I-17J27*
G01*
X752*
G75*
G02X701Y867I-20J25*
G01*
G75*
G02X752Y892I32*
G01*
X938*
G75*
G02X920Y932I11J29*
G01*
X810*
G75*
G02X759Y957I-20J25*
G01*
G75*
G02X810Y981I32*
G01*
X886*
G75*
G02X886Y988I31J7*
G01*
G75*
G02X886Y990I31J0*
G01*
X844Y990*
G75*
G02X794Y1016I-18J26*
G01*
G75*
G02X842Y1042I32*
G01*
X931Y1041*
G75*
G02X980Y1013I17J-26*
G01*
X1044*
G75*
G02X1043Y1019I31J6*
G01*
G75*
G02X1091Y1045I32*
G01*
X1208*
G75*
G02X1207Y1051I31J6*
G01*
G75*
G02X1214Y1071I32*
G01*
Y1452*
X960*
G75*
G02X964Y1435I-29J-16*
G01*
G75*
G02X897I-34*
G01*
G75*
G02X901Y1452I34*
G01*
X696*
G37*
X901D02*
G36*
G75*
G02X960I29J-16D01*
G01*
X1214*
Y1623*
G75*
G02X1208Y1638I25J20*
G01*
X876*
G75*
G02X809I-34*
G01*
X696*
Y1452*
X901*
G37*
X195Y1767D02*
G36*
G75*
G02X283I44D01*
G01*
X775*
G75*
G02X805I15J-28*
G01*
X862*
G75*
G02X845Y1796I17J29*
G01*
G75*
G02X912I34*
G01*
G75*
G02X895Y1767I-34*
G01*
X1427*
Y1940*
X283*
G75*
G02X195I-44*
G01*
X47*
Y1767*
X195*
G37*
X805D02*
G36*
G75*
G02X821Y1739I-15J-28D01*
G01*
G75*
G02X770Y1714I-32*
G01*
X696*
Y1638*
X809*
G75*
G02X876I34*
G01*
X1208*
G75*
G02X1207Y1643I31J5*
G01*
G75*
G02X1270I32*
G01*
G75*
G02X1270Y1638I-32J0*
G01*
X1341*
G75*
G02X1333Y1660I25J22*
G01*
G75*
G02X1400I34*
G01*
G75*
G02X1391Y1638I-34J0*
G01*
X1420*
G75*
G02X1427Y1654I31J-4*
G01*
Y1767*
X895*
G75*
G02X862I-17J29*
G01*
X805*
G37*
X1476D02*
G36*
Y1654D01*
G75*
G02X1483Y1638I-25J-20*
G01*
X1609*
G75*
G02X1675I33J-3*
G01*
X2230*
G75*
G02X2237Y1651I31J-6*
G01*
Y1732*
X1755*
G75*
G02X1730Y1757J25*
G01*
Y1767*
X1476*
G37*
X1730D02*
G36*
Y1836D01*
G75*
G02X1729Y1874I25J20*
G01*
G75*
G02X1705Y1898I1J24*
G01*
Y1937*
G75*
G02X1703Y1940I24J20*
G01*
X1476*
Y1767*
X1730*
G37*
X195Y1940D02*
G36*
G75*
G02X283I44D01*
G01*
X1427*
Y2055*
G75*
G02X1420Y2074I25J20*
G01*
X47*
Y1940*
X195*
G37*
X1703D02*
G36*
G75*
G02X1698Y1957I26J17D01*
G01*
G75*
G02X1761I32*
G01*
G75*
G02X1754Y1937I-32*
G01*
Y1923*
X2238*
Y2005*
G75*
G02X2231Y2024I25J20*
G01*
G75*
G02X2294I32*
G01*
G75*
G02X2287Y2005I-32*
G01*
Y1898*
G75*
G02X2284Y1887I-25J0*
G01*
X2699*
G75*
G02X2739I20J-25*
G01*
X2761*
G75*
G02X2785Y1862J-25*
G01*
Y1124*
G75*
G02X2833Y1094I14J-30*
G01*
G75*
G02X2785Y1064I-34*
G01*
Y1035*
X3038*
Y2077*
G75*
G03X2953Y2122I-73J-35*
G01*
G75*
G02X2946Y2121I-7J34*
G01*
X2938*
G75*
G02X2940Y2111I-18J-10*
G01*
Y1961*
G75*
G02X2920Y1940I-21*
G01*
X2860*
G75*
G02X2839Y1961J21*
G01*
Y2074*
X1693*
G75*
G02X1626I-34*
G01*
X1483*
G75*
G02X1476Y2055I-32J0*
G01*
Y1940*
X1703*
G37*
X309Y922D02*
G36*
Y879D01*
G75*
G02X311Y842I-24J-20*
G01*
Y796*
X576*
G75*
G02X643I34*
G01*
X645*
Y922*
X467*
G75*
G02X400I-34*
G01*
X309*
G37*
X1610D02*
G36*
G75*
G02X1605Y904I-31J-1D01*
G01*
X1738*
Y922*
X1714*
G75*
G02X1655I-30J16*
G01*
X1610*
G37*
X1655D02*
G36*
G75*
G02X1651Y938I30J16D01*
G01*
G75*
G02X1718I34*
G01*
G75*
G02X1714Y922I-34*
G01*
X1738*
Y1109*
G75*
G02X1737Y1147I25J20*
G01*
Y1152*
X1676*
G75*
G02X1609I-34*
G01*
X1263*
Y1071*
G75*
G02X1270Y1051I-25J-20*
G01*
G75*
G02X1270Y1045I-32J0*
G01*
X1499*
G75*
G02X1547Y1013I18J-26*
G01*
X1613*
G75*
G02X1665Y988I20J-25*
G01*
G75*
G02X1639Y957I-32*
G01*
G75*
G02X1610Y925I-31J-1*
G01*
G75*
G02X1610Y922I-31J-4*
G01*
X1655*
G37*
X311Y796D02*
G36*
Y678D01*
X645*
Y796*
X643*
G75*
G02X576I-34*
G01*
X311*
G37*
X1270Y1638D02*
G36*
G75*
G02X1263Y1623I-31J5D01*
G01*
Y1152*
X1609*
G75*
G02X1676I34*
G01*
X1737*
Y1542*
G75*
G02X1732Y1559I26J17*
G01*
G75*
G02X1795I32*
G01*
G75*
G02X1789Y1541I-32*
G01*
Y1147*
G75*
G02X1787Y1109I-26J-18*
G01*
Y904*
X1854*
Y1035*
X2218*
G75*
G02X2225Y1049I31J-5*
G01*
Y1181*
X2071*
G75*
G02X2046Y1206J25*
G01*
Y1477*
G75*
G02X2039Y1497I25J20*
G01*
G75*
G02X2102I32*
G01*
G75*
G02X2095Y1477I-32*
G01*
Y1230*
X2249*
G75*
G02X2274Y1206J-25*
G01*
Y1077*
X2587*
G75*
G02X2654I34*
G01*
X2681*
Y1803*
X2657*
G75*
G02X2617I-20J25*
G01*
X2585*
G75*
G02X2586Y1796I-33J-7*
G01*
G75*
G02X2519I-34*
G01*
G75*
G02X2519Y1803I34J0*
G01*
X2116*
G75*
G02X2064Y1827I-20J25*
G01*
G75*
G02X2116Y1852I32*
G01*
X2144*
G75*
G02X2145Y1874I30J11*
G01*
X1781*
G75*
G02X1779Y1836I-26J-18*
G01*
Y1781*
X1977*
G75*
G02X1974Y1796I30J14*
G01*
G75*
G02X2041I34*
G01*
G75*
G02X2038Y1781I-34J0*
G01*
X2261*
G75*
G02X2286Y1757J-25*
G01*
Y1651*
G75*
G02X2293Y1632I-25J-20*
G01*
G75*
G02X2230I-32*
G01*
G75*
G02X2230Y1638I31J0*
G01*
X1675*
G75*
G02X1675Y1635I-33J-3*
G01*
G75*
G02X1608I-34*
G01*
G75*
G02X1609Y1638I33J0*
G01*
X1483*
G75*
G02X1483Y1634I-31J-4*
G01*
G75*
G02X1420I-32*
G01*
G75*
G02X1420Y1638I32J0*
G01*
X1391*
G75*
G02X1341I-25J22*
G01*
X1270*
G37*
X1420Y2074D02*
G36*
Y2074D01*
G75*
G02X1483I32*
G01*
Y2074*
X1626*
G75*
G02X1693I34*
G01*
X2839*
Y2111*
G75*
G02X2842Y2121I21J0*
G01*
X110Y2121*
G75*
G02X108Y2121I0J35*
G01*
G75*
G03X47Y2088I-4J-67*
G01*
Y2074*
X1420*
G37*
X2274Y1077D02*
G36*
Y1049D01*
G75*
G02X2280Y1035I-25J-20*
G01*
X2681*
Y1077*
X2654*
G75*
G02X2587I-34*
G01*
X2274*
G37*
X47Y63D02*
G75*
G03X63Y51I35J29D01*
G01*
X2993Y50*
G75*
G03X3033Y91I-41J80*
G01*
Y1000*
X2825*
G75*
G02X2839Y973I-19J-28*
G01*
G75*
G02X2785Y946I-34*
G01*
Y396*
G75*
G02X2792Y376I-25J-20*
G01*
G75*
G02X2730Y369I-32*
G01*
Y319*
G75*
G02X2737Y300I-25J-20*
G01*
G75*
G02X2674I-32*
G01*
G75*
G02X2681Y319I32*
G01*
Y1000*
X2651*
G75*
G02X2653Y988I-31J-13*
G01*
G75*
G02X2586I-34*
G01*
G75*
G02X2589Y1000I34J0*
G01*
X2261*
G75*
G02X2238I-12J29*
G01*
X1886*
Y872*
X1787*
Y337*
G75*
G02X1743Y293I-25J-20*
G01*
X1539*
Y236*
G75*
G02X1513Y212I-25*
G01*
X928*
G75*
G02X888I-20J24*
G01*
X355*
G75*
G02X330Y236J24*
G01*
Y328*
G75*
G02X323Y348I24J20*
G01*
G75*
G02X386I32*
G01*
G75*
G02X379Y328I-32*
G01*
Y261*
X888*
G75*
G02X928I20J-24*
G01*
X1041*
G75*
G02X1041Y270I31J4*
G01*
X464*
G75*
G02X415Y296I-18J26*
G01*
G75*
G02X464Y322I32*
G01*
X770*
G75*
G02X757Y348I21J26*
G01*
G75*
G02X824I34*
G01*
G75*
G02X811Y322I-34*
G01*
X1153*
Y489*
G75*
G02X1147Y507I26J18*
G01*
G75*
G02X1210I32*
G01*
G75*
G02X1205Y489I-32*
G01*
Y296*
G75*
G02X1204Y289I-26J0*
G01*
X1261*
Y614*
G75*
G02X1256Y614I-5J24*
G01*
X1032*
G75*
G02X981Y638I-20J25*
G01*
G75*
G02X1032Y663I32*
G01*
X1232*
Y678*
X697*
Y616*
G75*
G02X695Y579I-26J-17*
G01*
Y443*
G75*
G02X702Y423I-25J-20*
G01*
G75*
G02X639I-32*
G01*
G75*
G02X646Y443I32*
G01*
Y579*
G75*
G02X645Y617I25J20*
G01*
Y678*
X311*
Y420*
G75*
G02X309Y382I-26J-18*
G01*
Y194*
X389*
G75*
G02X441Y169I20J-25*
G01*
G75*
G02X389Y145I-32*
G01*
X285*
G75*
G02X276Y147I0J25*
G01*
Y123*
X1226*
G75*
G02X1277Y99I20J-25*
G01*
G75*
G02X1226Y74I-32*
G01*
X251*
G75*
G02X227Y99J25*
G01*
Y678*
X47*
Y63*
X537Y487D02*
G75*
G02X604I34D01*
G01*
G75*
G02X537I-34*
G01*
X2057Y824D02*
G75*
G02X2124I34D01*
G01*
G75*
G02X2057I-34*
G01*
X2057Y914D02*
G75*
G02X2124I34D01*
G01*
G75*
G02X2057I-34*
G01*
X2058Y194D02*
G75*
G02X2125I34D01*
G01*
G75*
G02X2058I-34*
G01*
Y422D02*
G75*
G02X2125I34D01*
G01*
G75*
G02X2058I-34*
G01*
Y626D02*
G75*
G02X2125I34D01*
G01*
G75*
G02X2058I-34*
G01*
X311Y487D02*
G36*
Y420D01*
G75*
G02X309Y382I-26J-18*
G01*
Y194*
X389*
G75*
G02X429Y194I20J-25*
G01*
X2058*
G75*
G02X2125I34*
G01*
X3033*
Y1000*
X2825*
G75*
G02X2839Y973I-19J-28*
G01*
G75*
G02X2785Y946I-34*
G01*
Y396*
G75*
G02X2792Y376I-25J-20*
G01*
G75*
G02X2730Y369I-32*
G01*
Y319*
G75*
G02X2737Y300I-25J-20*
G01*
G75*
G02X2674I-32*
G01*
G75*
G02X2681Y319I32*
G01*
Y422*
X2125*
G75*
G02X2058I-34*
G01*
X1787*
Y337*
G75*
G02X1743Y293I-25J-20*
G01*
X1539*
Y236*
G75*
G02X1513Y212I-25*
G01*
X928*
G75*
G02X888I-20J24*
G01*
X355*
G75*
G02X330Y236J24*
G01*
Y328*
G75*
G02X323Y348I24J20*
G01*
G75*
G02X386I32*
G01*
G75*
G02X379Y328I-32*
G01*
Y261*
X888*
G75*
G02X928I20J-24*
G01*
X1041*
G75*
G02X1041Y270I31J4*
G01*
X464*
G75*
G02X415Y296I-18J26*
G01*
G75*
G02X464Y322I32*
G01*
X770*
G75*
G02X757Y348I21J26*
G01*
G75*
G02X824I34*
G01*
G75*
G02X811Y322I-34*
G01*
X1153*
Y489*
G75*
G02X1147Y507I26J18*
G01*
G75*
G02X1210I32*
G01*
G75*
G02X1205Y489I-32*
G01*
Y296*
G75*
G02X1204Y289I-26J0*
G01*
X1261*
Y614*
G75*
G02X1256Y614I-5J24*
G01*
X1032*
G75*
G02X981Y638I-20J25*
G01*
G75*
G02X1032Y663I32*
G01*
X1232*
Y678*
X697*
Y616*
G75*
G02X695Y579I-26J-17*
G01*
Y443*
G75*
G02X702Y423I-25J-20*
G01*
G75*
G02X639I-32*
G01*
G75*
G02X646Y443I32*
G01*
Y487*
X604*
G75*
G02X537I-34*
G01*
X311*
G37*
X537D02*
G36*
G75*
G02X604I34D01*
G01*
X646*
Y579*
G75*
G02X645Y617I25J20*
G01*
Y678*
X311*
Y487*
X537*
G37*
X1787Y824D02*
G36*
Y626D01*
X2058*
G75*
G02X2125I34*
G01*
X2681*
Y824*
X2124*
G75*
G02X2057I-34*
G01*
X1787*
G37*
X2057D02*
G36*
G75*
G02X2124I34D01*
G01*
X2681*
Y914*
X2124*
G75*
G02X2057I-34*
G01*
X1886*
Y872*
X1787*
Y824*
X2057*
G37*
X2057Y914D02*
G36*
G75*
G02X2124I34D01*
G01*
X2681*
Y1000*
X2651*
G75*
G02X2653Y988I-31J-13*
G01*
G75*
G02X2586I-34*
G01*
G75*
G02X2589Y1000I34J0*
G01*
X2261*
G75*
G02X2238I-12J29*
G01*
X1886*
Y914*
X2057*
G37*
X429Y194D02*
G36*
G75*
G02X441Y169I-19J-25D01*
G01*
G75*
G02X389Y145I-32*
G01*
X285*
G75*
G02X276Y147I0J25*
G01*
Y123*
X1226*
G75*
G02X1277Y99I20J-25*
G01*
G75*
G02X1226Y74I-32*
G01*
X251*
G75*
G02X227Y99J25*
G01*
Y678*
X47*
Y63*
G75*
G03X63Y51I35J29*
G01*
X2993Y50*
G75*
G03X3033Y91I-41J80*
G01*
Y194*
X2125*
G75*
G02X2058I-34*
G01*
X429*
G37*
X2058Y422D02*
G36*
G75*
G02X2125I34D01*
G01*
X2681*
Y626*
X2125*
G75*
G02X2058I-34*
G01*
X1787*
Y422*
X2058*
G37*
X967Y1039D02*
X1310Y678*
X1344D01*
Y701*
G75*
G02X1370Y753I25J20*
G01*
Y897*
X969*
G75*
G02X961Y892I-20J25*
G01*
X1169*
G75*
G02X1187I9J-25*
G01*
X1286*
G75*
G02X1310Y867J-25*
G01*
Y678*
G36*
X1344*
Y701*
G75*
G02X1370Y753I25J20*
G01*
Y897*
X969*
G75*
G02X961Y892I-20J25*
G01*
X1169*
G75*
G02X1187I9J-25*
G01*
X1286*
G75*
G02X1310Y867J-25*
G01*
Y678*
G37*
Y265*
G75*
G02X1310Y261I-25J0*
G01*
X1383*
G75*
G02X1380Y273I31J13*
G01*
G75*
G02X1447I34*
G01*
G75*
G02X1445Y261I-34J0*
G01*
X1490*
Y317*
G75*
G02X1515Y342I25*
G01*
X1738*
Y872*
X1405*
Y678*
X1393*
Y349*
G75*
G02X1400Y329I-25J-20*
G01*
G75*
G02X1337I-32*
G01*
G75*
G02X1344Y349I32*
G01*
Y678*
X1310*
G36*
Y265*
G75*
G02X1310Y261I-25J0*
G01*
X1383*
G75*
G02X1380Y273I31J13*
G01*
G75*
G02X1447I34*
G01*
G75*
G02X1445Y261I-34J0*
G01*
X1490*
Y317*
G75*
G02X1515Y342I25*
G01*
X1738*
Y872*
X1405*
Y678*
X1393*
Y349*
G75*
G02X1400Y329I-25J-20*
G01*
G75*
G02X1337I-32*
G01*
G75*
G02X1344Y349I32*
G01*
Y678*
X1310*
G37*
X2730Y1000D02*
Y383D01*
G75*
G02X2736Y396I31J-7*
G01*
Y1000*
X2730*
G36*
Y383*
G75*
G02X2736Y396I31J-7*
G01*
Y1000*
X2730*
G37*
Y1035D02*
X2736D01*
Y1836*
G75*
G02X2730Y1833I-17J26*
G01*
G75*
G02X2730Y1827I-24J-5*
G01*
Y1035*
G36*
X2736*
Y1836*
G75*
G02X2730Y1833I-17J26*
G01*
G75*
G02X2730Y1827I-24J-5*
G01*
Y1035*
G37*
D02*
D148*
X208Y1452D02*
X180D01*
X214Y1446D02*
Y1418D01*
Y1458D02*
Y1485D01*
X220Y1452D02*
X247D01*
X428Y922D02*
X400D01*
X434Y916D02*
Y889D01*
Y928D02*
Y956D01*
X440Y922D02*
X467D01*
X471Y1431D02*
X452Y1450D01*
X480Y1431D02*
X499Y1450D01*
X565Y487D02*
X537D01*
X571Y481D02*
Y453D01*
Y493D02*
Y520D01*
X577Y487D02*
X604D01*
X604Y796D02*
X576D01*
X610Y790D02*
Y762D01*
Y802D02*
Y829D01*
X616Y796D02*
X643D01*
X616Y1061D02*
X589D01*
X622Y1055D02*
Y1028D01*
Y1067D02*
Y1095D01*
X784Y348D02*
X757D01*
X784Y721D02*
X757D01*
X790Y354D02*
Y382D01*
Y715D02*
Y688D01*
Y727D02*
Y755D01*
X796Y348D02*
X824D01*
X837Y1638D02*
X809D01*
X843Y1632D02*
Y1604D01*
Y1644D02*
Y1671D01*
X849Y1638D02*
X876D01*
X873Y1796D02*
X845D01*
X879Y1790D02*
Y1762D01*
Y1802D02*
Y1829D01*
X885Y1796D02*
X912D01*
X924Y1435D02*
X897D01*
X930Y1429D02*
Y1402D01*
Y1441D02*
Y1469D01*
X936Y1435D02*
X964D01*
X1360Y1660D02*
X1333D01*
X1366Y1654D02*
Y1626D01*
Y1666D02*
Y1693D01*
X1372Y1660D02*
X1400D01*
X1408Y273D02*
X1380D01*
X1414Y279D02*
Y307D01*
X1420Y273D02*
X1447D01*
X1636Y1635D02*
X1608D01*
X1637Y1152D02*
X1609D01*
X1642Y1629D02*
Y1601D01*
Y1641D02*
Y1668D01*
X1643Y1146D02*
Y1119D01*
Y1158D02*
Y1186D01*
X1648Y1635D02*
X1675D01*
X1649Y1152D02*
X1676D01*
X1654Y2074D02*
X1626D01*
X1660Y2068D02*
Y2041D01*
Y2080D02*
Y2108D01*
X1666Y2074D02*
X1693D01*
X1679Y938D02*
X1651D01*
X1685Y932D02*
Y905D01*
Y944D02*
Y972D01*
X1691Y938D02*
X1718D01*
X2002Y1796D02*
X1974D01*
X2008Y1802D02*
Y1829D01*
X2014Y1796D02*
X2041D01*
X2085Y824D02*
X2057D01*
X2085Y914D02*
X2057D01*
X2085Y194D02*
X2058D01*
X2085Y422D02*
X2058D01*
X2085Y626D02*
X2058D01*
X2091Y818D02*
Y790D01*
Y830D02*
Y857D01*
X2091Y908D02*
Y881D01*
Y920D02*
Y948D01*
X2091Y188D02*
Y161D01*
Y200D02*
Y228D01*
Y416D02*
Y389D01*
Y428D02*
Y456D01*
Y620D02*
Y592D01*
Y632D02*
Y659D01*
X2097Y824D02*
X2124D01*
X2097Y914D02*
X2124D01*
X2097Y194D02*
X2125D01*
X2097Y422D02*
X2125D01*
X2097Y626D02*
X2125D01*
X2546Y1796D02*
X2519D01*
X2552Y1790D02*
Y1762D01*
X2558Y1796D02*
X2586D01*
X2614Y988D02*
X2586D01*
X2614Y1077D02*
X2587D01*
X2620Y982D02*
Y954D01*
X2620Y1071D02*
Y1043D01*
Y1083D02*
Y1110D01*
X2626Y988D02*
X2653D01*
X2626Y1077D02*
X2654D01*
X2800Y1088D02*
Y1061D01*
Y1100D02*
Y1128D01*
X2806Y967D02*
Y939D01*
X2806Y1094D02*
X2833D01*
X2812Y973D02*
X2839D01*
X0Y0D02*
M02*
