%FSLAX23Y23*%
%MOIN*%
G04 EasyPC Gerber Version 15.0.4 Build 3016 *
%ADD91R,0.02200X0.05200*%
%ADD89R,0.03200X0.08000*%
%ADD96R,0.03953X0.05331*%
%ADD101R,0.04346X0.05331*%
%ADD86R,0.04940X0.05330*%
%ADD103R,0.05000X0.05800*%
%ADD97R,0.05606X0.08087*%
%ADD140R,0.06906X0.10449*%
%ADD106R,0.10843X0.02969*%
%ADD107R,0.10843X0.08874*%
%ADD143R,0.03000X0.03000*%
%ADD104R,0.04150X0.04150*%
%ADD95R,0.05000X0.05000*%
%ADD93R,0.14200X0.14200*%
%ADD16C,0.00500*%
%ADD92R,0.05200X0.02200*%
%ADD88R,0.08000X0.03200*%
%ADD84R,0.08800X0.03200*%
%ADD90R,0.09660X0.03360*%
%ADD100R,0.05724X0.04937*%
%ADD87R,0.05330X0.04940*%
%ADD94R,0.06000X0.05000*%
%ADD85R,0.07000X0.06100*%
%ADD98R,0.07102X0.06315*%
%ADD99R,0.08480X0.06315*%
%ADD108C,0.05724*%
%ADD142C,0.06000*%
%ADD141R,0.10449X0.06906*%
X0Y0D02*
D02*
D16*
X3Y80D02*
G75*
G03X95Y4I84J9D01*
G01*
X2947*
G75*
G03X3100Y113I22J131*
G01*
X3100Y2065*
G75*
G03X2948Y2164I-126J-26*
G01*
X110Y2163*
G75*
G03X3Y2067I-6J-102*
G01*
Y80*
D02*
D84*
X1828Y981D03*
Y1031D03*
Y1081D03*
Y1131D03*
X2014Y981D03*
Y1031D03*
Y1081D03*
Y1131D03*
D02*
D85*
X227Y780D03*
Y855D03*
X503Y489D03*
Y564D03*
X610Y638D03*
Y713D03*
X2008Y1634D03*
Y1709D03*
X2011Y1946D03*
Y2021D03*
X2091Y1635D03*
Y1710D03*
X2096Y1946D03*
Y2021D03*
X2174Y1634D03*
Y1709D03*
X2175Y955D03*
Y1030D03*
X2180Y1947D03*
Y2022D03*
X2328Y1095D03*
Y1170D03*
X2551Y1949D03*
Y2024D03*
X2552Y1634D03*
Y1709D03*
X2637Y1633D03*
Y1708D03*
X2640Y1950D03*
Y2025D03*
X2721Y1633D03*
Y1708D03*
X2726Y1951D03*
Y2026D03*
D02*
D86*
X261Y1019D03*
X261Y940D03*
X331Y1019D03*
X331Y940D03*
X504Y170D03*
Y259D03*
Y351D03*
X574Y170D03*
Y259D03*
Y351D03*
X804Y1559D03*
X874D03*
X1109Y1071D03*
X1179D03*
X1238Y1734D03*
X1241Y1805D03*
X1242Y1880D03*
X1242Y1957D03*
X1308Y1734D03*
X1311Y1805D03*
X1312Y1880D03*
X1312Y1957D03*
X1509Y1634D03*
X1518Y2074D03*
X1568Y742D03*
X1568Y834D03*
X1579Y1634D03*
X1588Y2074D03*
X1591Y470D03*
X1592Y562D03*
X1595Y654D03*
X1638Y742D03*
X1638Y834D03*
X1661Y470D03*
X1662Y562D03*
X1665Y654D03*
X1857Y2024D03*
X1858Y1631D03*
X1872Y1207D03*
X1908Y1499D03*
X1927Y2024D03*
X1928Y1631D03*
X1942Y1207D03*
X1978Y1499D03*
X2211Y1380D03*
X2212Y1489D03*
X2281Y1380D03*
X2282Y1489D03*
X2397Y2026D03*
X2401Y1629D03*
X2446Y376D03*
Y1538D03*
X2447Y461D03*
X2448Y1324D03*
X2448Y203D03*
Y545D03*
Y627D03*
X2449Y1432D03*
X2449Y711D03*
Y882D03*
Y966D03*
X2451Y1241D03*
X2451Y797D03*
X2467Y2026D03*
X2471Y1629D03*
X2516Y376D03*
Y1538D03*
X2517Y461D03*
X2518Y1324D03*
X2518Y203D03*
Y545D03*
Y627D03*
X2519Y1432D03*
X2519Y711D03*
Y882D03*
Y966D03*
X2521Y1241D03*
X2521Y797D03*
D02*
D87*
X465Y1281D03*
Y1351D03*
X726Y639D03*
Y709D03*
X1008Y1412D03*
Y1482D03*
X1261Y1419D03*
Y1489D03*
X1305Y1276D03*
Y1346D03*
X1368Y1119D03*
Y1189D03*
X1515Y1115D03*
Y1185D03*
X1626Y252D03*
Y322D03*
X1759Y607D03*
Y677D03*
Y807D03*
Y877D03*
X1763Y399D03*
Y469D03*
X1764Y171D03*
Y241D03*
X1780Y1955D03*
Y2025D03*
X1781Y1630D03*
Y1700D03*
X1835Y807D03*
Y877D03*
X1836Y399D03*
Y469D03*
X1839Y607D03*
Y677D03*
X1843Y171D03*
Y241D03*
X1927Y556D03*
Y626D03*
Y741D03*
Y811D03*
X1927Y124D03*
Y194D03*
X1931Y352D03*
Y422D03*
X2002Y741D03*
Y811D03*
X2003Y124D03*
Y194D03*
Y556D03*
Y626D03*
X2003Y352D03*
Y422D03*
X2264Y251D03*
Y321D03*
X2321Y1955D03*
Y2025D03*
X2325Y1632D03*
Y1702D03*
D02*
D88*
X863Y564D03*
Y596D03*
Y627D03*
Y659D03*
Y690D03*
Y722D03*
Y753D03*
Y785D03*
X1191Y564D03*
Y596D03*
Y627D03*
Y659D03*
Y690D03*
Y722D03*
Y753D03*
Y785D03*
D02*
D89*
X916Y511D03*
Y839D03*
X948Y511D03*
Y839D03*
X979Y511D03*
Y839D03*
X1011Y511D03*
Y839D03*
X1042Y511D03*
Y839D03*
X1074Y511D03*
Y839D03*
X1105Y511D03*
Y839D03*
X1137Y511D03*
Y839D03*
D02*
D90*
X623Y1136D03*
Y1186D03*
Y1236D03*
Y1286D03*
Y1336D03*
Y1386D03*
Y1436D03*
Y1486D03*
X827Y1136D03*
Y1186D03*
Y1236D03*
Y1286D03*
Y1336D03*
Y1386D03*
Y1436D03*
Y1486D03*
X1447Y1261D03*
Y1311D03*
Y1361D03*
Y1411D03*
Y1461D03*
Y1511D03*
Y1561D03*
X1448Y1707D03*
Y1757D03*
Y1807D03*
Y1857D03*
Y1907D03*
Y1957D03*
Y2007D03*
X1652Y1261D03*
Y1311D03*
Y1361D03*
Y1411D03*
Y1461D03*
Y1511D03*
Y1561D03*
X1653Y1707D03*
Y1757D03*
Y1807D03*
Y1857D03*
Y1907D03*
Y1957D03*
Y2007D03*
D02*
D91*
X351Y638D03*
Y825D03*
X371Y638D03*
Y825D03*
X391Y638D03*
Y825D03*
X410Y638D03*
Y825D03*
X430Y638D03*
Y825D03*
X450Y638D03*
Y825D03*
X469Y638D03*
Y825D03*
D02*
D92*
X317Y672D03*
Y692D03*
Y712D03*
Y731D03*
Y751D03*
Y771D03*
Y790D03*
X504Y672D03*
Y692D03*
Y712D03*
Y731D03*
Y751D03*
Y771D03*
Y790D03*
D02*
D93*
X410Y731D03*
D02*
D94*
X293Y1452D03*
D02*
D95*
X288Y1532D03*
X368Y1452D03*
Y1532D03*
D02*
D96*
X960Y2065D03*
D02*
D97*
X1008Y2051D03*
D02*
D98*
X560Y2060D03*
D02*
D99*
X676Y1641D03*
X911D03*
D02*
D100*
X554Y1677D03*
Y1823D03*
D02*
D101*
X659Y2065D03*
X702D03*
X745D03*
X789D03*
X832D03*
X875D03*
X919D03*
D02*
D103*
X334Y433D03*
X374Y520D03*
X414Y433D03*
X1851Y1789D03*
Y1865D03*
X1891Y1702D03*
Y1952D03*
X1931Y1789D03*
Y1865D03*
X2394Y1868D03*
X2396Y1789D03*
X2434Y1955D03*
X2436Y1702D03*
X2474Y1868D03*
X2476Y1789D03*
D02*
D104*
X637Y171D03*
X641Y259D03*
Y348D03*
X696Y171D03*
X700Y259D03*
Y348D03*
D02*
D106*
X337Y1790D03*
Y1822D03*
Y1853D03*
Y1885D03*
Y1916D03*
D02*
D107*
X121Y1679D03*
Y2025D03*
X337Y1680D03*
Y2027D03*
D02*
D108*
X239Y1767D03*
Y1940D03*
D02*
D140*
X908Y168D03*
X991D03*
X1073Y168D03*
X1158Y168D03*
X1241D03*
X1327D03*
X1414D03*
D02*
D141*
X2877Y160D03*
Y242D03*
Y325D03*
Y407D03*
Y490D03*
Y573D03*
Y656D03*
Y738D03*
Y821D03*
Y904D03*
Y986D03*
Y1069D03*
Y1152D03*
Y1234D03*
Y1317D03*
Y1400D03*
Y1482D03*
Y1565D03*
Y1648D03*
Y1730D03*
Y1813D03*
Y1896D03*
D02*
D142*
X732Y483D03*
D02*
D143*
X793Y690D03*
X793Y658D03*
X0Y0D02*
M02*
