%FSLAX23Y23*%
%MOIN*%
G04 EasyPC Gerber Version 15.0.4 Build 3016 *
%ADD14C,0.00100*%
%ADD16C,0.00500*%
X0Y0D02*
D02*
D14*
X714Y520D02*
Y525D01*
X718*
Y547*
X714*
Y540*
X707*
Y553*
X737*
Y540*
X731*
Y547*
X727*
Y525*
X731*
Y520*
X714*
X757Y525D02*
Y520D01*
X740*
Y525*
X744*
Y547*
X740*
Y553*
X757*
X763Y552*
X767Y550*
X770Y546*
X770Y542*
Y539*
X769Y537*
X768Y535*
X766Y533*
X762Y532*
X760Y532*
X756*
X753*
Y525*
X757*
X753Y537D02*
X754D01*
X758Y537*
X760Y539*
X762Y540*
Y542*
X761Y546*
X759Y547*
X757Y547*
X755*
X753*
Y537*
X778Y520D02*
Y525D01*
X781*
Y547*
X776*
Y553*
X788*
Y525*
X792*
Y520*
X778*
X714Y520D02*
X731D01*
X740D02*
X757D01*
X778D02*
X792D01*
X714Y521D02*
X731D01*
X740D02*
X757D01*
X778D02*
X792D01*
X714Y522D02*
X731D01*
X740D02*
X757D01*
X778D02*
X792D01*
X714Y523D02*
X731D01*
X740D02*
X757D01*
X778D02*
X792D01*
X714Y524D02*
X731D01*
X740D02*
X757D01*
X778D02*
X792D01*
X714Y525D02*
X731D01*
X740D02*
X757D01*
X778D02*
X792D01*
X718Y525D02*
X727D01*
X744D02*
X753D01*
X781D02*
X788D01*
X718Y526D02*
X727D01*
X744D02*
X753D01*
X781D02*
X788D01*
X718Y527D02*
X727D01*
X744D02*
X753D01*
X781D02*
X788D01*
X718Y528D02*
X727D01*
X744D02*
X753D01*
X781D02*
X788D01*
X718Y529D02*
X727D01*
X744D02*
X753D01*
X781D02*
X788D01*
X718Y530D02*
X727D01*
X744D02*
X753D01*
X781D02*
X788D01*
X718Y531D02*
X727D01*
X744D02*
X753D01*
X781D02*
X788D01*
X718Y532D02*
X727D01*
X744D02*
X762D01*
X781D02*
X788D01*
X718Y533D02*
X727D01*
X744D02*
X765D01*
X781D02*
X788D01*
X718Y534D02*
X727D01*
X744D02*
X767D01*
X781D02*
X788D01*
X718Y535D02*
X727D01*
X744D02*
X768D01*
X781D02*
X788D01*
X718Y536D02*
X727D01*
X744D02*
X769D01*
X781D02*
X788D01*
X718Y537D02*
X727D01*
X744D02*
X769D01*
X781D02*
X788D01*
X718Y538D02*
X727D01*
X744D02*
X753D01*
X758D02*
X770D01*
X781D02*
X788D01*
X718Y539D02*
X727D01*
X744D02*
X753D01*
X760D02*
X770D01*
X781D02*
X788D01*
X718Y540D02*
X727D01*
X744D02*
X753D01*
X761D02*
X770D01*
X781D02*
X788D01*
X707Y540D02*
X714D01*
X718D02*
X727D01*
X731D02*
X737D01*
X744D02*
X753D01*
X762D02*
X770D01*
X781D02*
X788D01*
X707Y541D02*
X714D01*
X718D02*
X727D01*
X731D02*
X737D01*
X744D02*
X753D01*
X762D02*
X770D01*
X781D02*
X788D01*
X707Y542D02*
X714D01*
X718D02*
X727D01*
X731D02*
X737D01*
X744D02*
X753D01*
X762D02*
X770D01*
X781D02*
X788D01*
X707Y543D02*
X714D01*
X718D02*
X727D01*
X731D02*
X737D01*
X744D02*
X753D01*
X761D02*
X770D01*
X781D02*
X788D01*
X707Y544D02*
X714D01*
X718D02*
X727D01*
X731D02*
X737D01*
X744D02*
X753D01*
X761D02*
X770D01*
X781D02*
X788D01*
X707Y545D02*
X714D01*
X718D02*
X727D01*
X731D02*
X737D01*
X744D02*
X753D01*
X761D02*
X770D01*
X781D02*
X788D01*
X707Y546D02*
X714D01*
X718D02*
X727D01*
X731D02*
X737D01*
X744D02*
X753D01*
X760D02*
X770D01*
X781D02*
X788D01*
X707Y547D02*
X714D01*
X718D02*
X727D01*
X731D02*
X737D01*
X744D02*
X753D01*
X758D02*
X769D01*
X781D02*
X788D01*
X707Y548D02*
X737D01*
X740D02*
X768D01*
X776D02*
X788D01*
X707Y549D02*
X737D01*
X740D02*
X768D01*
X776D02*
X788D01*
X707Y550D02*
X737D01*
X740D02*
X767D01*
X776D02*
X788D01*
X707Y551D02*
X737D01*
X740D02*
X765D01*
X776D02*
X788D01*
X707Y552D02*
X737D01*
X740D02*
X764D01*
X776D02*
X788D01*
X707Y553D02*
X737D01*
X740D02*
X759D01*
X776D02*
X788D01*
D02*
D16*
X3Y80D02*
G75*
G03X95Y4I84J9D01*
G01*
X2947*
G75*
G03X3100Y113I22J131*
G01*
X3100Y2065*
G75*
G03X2948Y2164I-126J-26*
G01*
X110Y2163*
G75*
G03X3Y2067I-6J-102*
G01*
Y80*
X0Y0D02*
M02*
